<svg aria-hidden="true" width="27" height="22" viewBox="0 0 27 22" fill="none" xmlns="http://www.w3.org/2000/svg">
    <path d="M27.5 19.7087C27.5 20.9691 26.4689 22.0004 25.2086 22.0004H2.29145C1.03108 22.0004 0 20.9693 0 19.7087V2.29145C0 1.03108 1.03108 0 2.29145 0H25.2086C26.4689 0 27.5 1.03108 27.5 2.29145V19.7087ZM2.29145 1.83328C2.04805 1.83328 1.83348 2.04865 1.83348 2.29125V19.7085C1.83348 19.9519 2.04825 20.1665 2.29145 20.1665H25.2086C25.4511 20.1665 25.6671 19.9519 25.6671 19.7085V2.29125C25.6671 2.04865 25.4511 1.83328 25.2086 1.83328H2.29145ZM6.41698 9.1666C4.89869 9.1666 3.66616 7.93487 3.66616 6.41698C3.66616 4.8991 4.89869 3.66676 6.41698 3.66676C7.93467 3.66676 9.16599 4.8991 9.16599 6.41698C9.16599 7.93487 7.93487 9.1666 6.41698 9.1666ZM23.833 18.3338H3.66616V15.5832L5.95841 13.2915C7.22404 12.0262 9.27568 12.0262 10.5413 13.2915L14.3391 9.49416C16.2917 7.54172 19.4574 7.54181 21.41 9.49435L23.833 11.9174V18.3338Z"
          fill="black"/>
</svg>