<svg aria-hidden="true" width="27" height="27" viewBox="0 0 27 27" fill="none" xmlns="http://www.w3.org/2000/svg">
    <path d="M26.5273 3.17471C27.1133 3.59082 27.499 4.2726 27.499 5.0419V22.4579C27.499 23.7181 26.4682 24.7498 25.208 24.7499H4.95312L6.78711 22.9159H25.208C25.4505 22.9158 25.666 22.7012 25.666 22.4579V5.0419C25.666 4.79941 25.4505 4.58406 25.208 4.58389H25.1191L26.5273 3.17471ZM20.7129 4.58389H2.29102C2.04777 4.5841 1.83301 4.79943 1.83301 5.0419V22.4579C1.83301 22.7012 2.04797 22.9157 2.29102 22.9159H2.38086L0.970703 24.3251C0.385246 23.9089 0 23.2269 0 22.4579V5.0419C0 3.78169 1.03085 2.7501 2.29102 2.74991H22.5469L20.7129 4.58389ZM5.95801 16.0409C7.0002 14.9991 8.57536 14.8161 9.80566 15.4901L4.21289 21.0839H3.66602V18.3329L5.95801 16.0409ZM18.8301 10.872C19.775 11.0552 20.6773 11.5123 21.4092 12.244L23.832 14.6669V21.0839H8.61914L18.8301 10.872ZM6.41699 6.4169C7.93447 6.41702 9.16593 7.64921 9.16602 9.1669C9.16602 10.6847 7.93473 11.9168 6.41699 11.9169C4.89875 11.9169 3.66602 10.6847 3.66602 9.1669C3.66611 7.64914 4.89881 6.4169 6.41699 6.4169Z"
          fill="black"/>
    <path d="M1.09539 27.312C0.844808 27.5626 0.438624 27.5626 0.188037 27.312C-0.0625484 27.0614 -0.0625484 26.6552 0.188037 26.4046L26.4047 0.187946C26.6553 -0.06264 27.0615 -0.06264 27.3121 0.187946C27.5626 0.438532 27.5626 0.844716 27.3121 1.0953L1.09539 27.312Z"
          fill="black"/>
</svg>