<svg
        aria-hidden="true"
        class="header__settings-icon"
        width="30"
        height="30"
        viewBox="0 0 24 24"
        fill="currentColor"
>
    <path
            d="M18.11 13.03a6.7 6.7 0 000-2.06l1.74-1.36a.5.5 0 00.12-.65l-1.65-2.85a.5.5 0 00-.62-.2l-2.05.82a6.9 6.9 0 00-1.78-1.03l-.31-2.18a.5.5 0 00-.5-.42h-3.29a.5.5 0 00-.5.42l-.31 2.18a6.9 6.9 0 00-1.78 1.03l-2.05-.82a.5.5 0 00-.62.2L4.06 8.96a.5.5 0 00.12.65l1.74 1.36a6.7 6.7 0 000 2.06l-1.74 1.36a.5.5 0 00-.12.65l1.65 2.85a.5.5 0 00.62.2l2.05-.82c.53.43 1.14.78 1.78 1.03l.31 2.18a.5.5 0 00.5.42h3.29a.5.5 0 00.5-.42l.31-2.18a6.9 6.9 0 001.78-1.03l2.05.82a.5.5 0 00.62-.2l1.65-2.85a.5.5 0 00-.12-.65l-1.74-1.36zM12 15.1a2.88 2.88 0 110-5.76 2.88 2.88 0 010 5.76z"
    />
</svg>